#usda 1.0
(
	customLayerData = {
		string creator = "Three.js USDZExporter"
	}
	defaultPrim = "Root"
	metersPerUnit = 1
	upAxis = "Y"
)

def "Geometry"
{
	def Mesh "Geometry"
	{
		int[] faceVertexCounts = [3, 3, 3, 3, 3, 3, 3, 3, 3, 3, 3, 3, 3, 3, 3, 3, 3, 3, 3, 3, 3, 3, 3, 3, 3, 3, 3, 3, 3, 3, 3, 3, 3, 3, 3, 3, 3, 3, 3, 3, 3, 3, 3, 3, 3, 3, 3, 3, 3, 3, 3, 3, 3, 3, 3, 3, 3, 3, 3, 3, 3, 3, 3, 3, 3, 3, 3, 3, 3, 3, 3, 3, 3, 3, 3, 3, 3, 3, 3, 3, 3, 3, 3, 3, 3, 3, 3, 3, 3, 3, 3, 3, 3, 3, 3, 3, 3, 3, 3, 3, 3, 3, 3, 3, 3, 3, 3, 3, 3, 3, 3, 3, 3, 3, 3, 3, 3, 3, 3, 3, 3, 3, 3, 3, 3, 3, 3, 3, 3, 3, 3, 3, 3, 3, 3, 3, 3, 3, 3, 3, 3, 3, 3, 3, 3, 3, 3, 3, 3, 3, 3, 3, 3, 3, 3, 3, 3, 3, 3, 3, 3, 3, 3, 3, 3, 3, 3, 3, 3, 3, 3, 3, 3, 3, 3, 3, 3, 3, 3, 3, 3, 3, 3, 3, 3, 3, 3, 3, 3, 3, 3, 3, 3, 3, 3, 3, 3, 3, 3, 3, 3, 3, 3, 3, 3, 3, 3, 3, 3, 3, 3, 3, 3, 3, 3, 3, 3, 3, 3, 3, 3, 3, 3, 3, 3, 3, 3, 3, 3, 3, 3, 3, 3, 3, 3, 3, 3, 3, 3, 3, 3, 3, 3, 3, 3, 3, 3, 3, 3, 3, 3, 3, 3, 3, 3, 3, 3, 3, 3, 3, 3, 3, 3, 3, 3, 3, 3, 3, 3, 3, 3, 3, 3, 3, 3, 3, 3, 3, 3, 3, 3, 3, 3, 3, 3, 3, 3, 3, 3, 3, 3, 3, 3, 3, 3, 3, 3, 3, 3, 3, 3, 3, 3, 3, 3, 3, 3, 3, 3, 3, 3, 3, 3, 3, 3, 3, 3, 3, 3, 3, 3, 3, 3, 3, 3, 3, 3, 3, 3, 3, 3, 3, 3, 3, 3, 3, 3, 3, 3, 3, 3, 3, 3, 3, 3, 3, 3, 3, 3, 3, 3, 3, 3, 3, 3, 3, 3, 3, 3, 3, 3, 3, 3, 3, 3, 3, 3, 3, 3, 3, 3, 3, 3, 3, 3, 3, 3, 3, 3, 3, 3, 3, 3, 3, 3, 3, 3, 3, 3, 3, 3, 3, 3, 3, 3, 3, 3, 3, 3, 3]
		int[] faceVertexIndices = [0, 9, 10, 1, 10, 11, 2, 11, 12, 3, 12, 13, 4, 13, 14, 5, 14, 15, 6, 15, 16, 7, 16, 17, 10, 9, 19, 9, 18, 19, 11, 10, 20, 10, 19, 20, 12, 11, 21, 11, 20, 21, 13, 12, 22, 12, 21, 22, 14, 13, 23, 13, 22, 23, 15, 14, 24, 14, 23, 24, 16, 15, 25, 15, 24, 25, 17, 16, 26, 16, 25, 26, 19, 18, 28, 18, 27, 28, 20, 19, 29, 19, 28, 29, 21, 20, 30, 20, 29, 30, 22, 21, 31, 21, 30, 31, 23, 22, 32, 22, 31, 32, 24, 23, 33, 23, 32, 33, 25, 24, 34, 24, 33, 34, 26, 25, 35, 25, 34, 35, 28, 27, 37, 27, 36, 37, 29, 28, 38, 28, 37, 38, 30, 29, 39, 29, 38, 39, 31, 30, 40, 30, 39, 40, 32, 31, 41, 31, 40, 41, 33, 32, 42, 32, 41, 42, 34, 33, 43, 33, 42, 43, 35, 34, 44, 34, 43, 44, 37, 36, 46, 36, 45, 46, 38, 37, 47, 37, 46, 47, 39, 38, 48, 38, 47, 48, 40, 39, 49, 39, 48, 49, 41, 40, 50, 40, 49, 50, 42, 41, 51, 41, 50, 51, 43, 42, 52, 42, 51, 52, 44, 43, 53, 43, 52, 53, 46, 45, 55, 47, 46, 56, 48, 47, 57, 49, 48, 58, 50, 49, 59, 51, 50, 60, 52, 51, 61, 53, 52, 62, 63, 72, 73, 64, 73, 74, 65, 74, 75, 66, 75, 76, 67, 76, 77, 68, 77, 78, 69, 78, 79, 70, 79, 80, 73, 72, 82, 72, 81, 82, 74, 73, 83, 73, 82, 83, 75, 74, 84, 74, 83, 84, 76, 75, 85, 75, 84, 85, 77, 76, 86, 76, 85, 86, 78, 77, 87, 77, 86, 87, 79, 78, 88, 78, 87, 88, 80, 79, 89, 79, 88, 89, 82, 81, 91, 81, 90, 91, 83, 82, 92, 82, 91, 92, 84, 83, 93, 83, 92, 93, 85, 84, 94, 84, 93, 94, 86, 85, 95, 85, 94, 95, 87, 86, 96, 86, 95, 96, 88, 87, 97, 87, 96, 97, 89, 88, 98, 88, 97, 98, 91, 90, 100, 90, 99, 100, 92, 91, 101, 91, 100, 101, 93, 92, 102, 92, 101, 102, 94, 93, 103, 93, 102, 103, 95, 94, 104, 94, 103, 104, 96, 95, 105, 95, 104, 105, 97, 96, 106, 96, 105, 106, 98, 97, 107, 97, 106, 107, 100, 99, 109, 99, 108, 109, 101, 100, 110, 100, 109, 110, 102, 101, 111, 101, 110, 111, 103, 102, 112, 102, 111, 112, 104, 103, 113, 103, 112, 113, 105, 104, 114, 104, 113, 114, 106, 105, 115, 105, 114, 115, 107, 106, 116, 106, 115, 116, 109, 108, 118, 110, 109, 119, 111, 110, 120, 112, 111, 121, 113, 112, 122, 114, 113, 123, 115, 114, 124, 116, 115, 125, 126, 135, 136, 127, 136, 137, 128, 137, 138, 129, 138, 139, 130, 139, 140, 131, 140, 141, 132, 141, 142, 133, 142, 143, 136, 135, 145, 135, 144, 145, 137, 136, 146, 136, 145, 146, 138, 137, 147, 137, 146, 147, 139, 138, 148, 138, 147, 148, 140, 139, 149, 139, 148, 149, 141, 140, 150, 140, 149, 150, 142, 141, 151, 141, 150, 151, 143, 142, 152, 142, 151, 152, 145, 144, 154, 144, 153, 154, 146, 145, 155, 145, 154, 155, 147, 146, 156, 146, 155, 156, 148, 147, 157, 147, 156, 157, 149, 148, 158, 148, 157, 158, 150, 149, 159, 149, 158, 159, 151, 150, 160, 150, 159, 160, 152, 151, 161, 151, 160, 161, 154, 153, 163, 153, 162, 163, 155, 154, 164, 154, 163, 164, 156, 155, 165, 155, 164, 165, 157, 156, 166, 156, 165, 166, 158, 157, 167, 157, 166, 167, 159, 158, 168, 158, 167, 168, 160, 159, 169, 159, 168, 169, 161, 160, 170, 160, 169, 170, 163, 162, 172, 162, 171, 172, 164, 163, 173, 163, 172, 173, 165, 164, 174, 164, 173, 174, 166, 165, 175, 165, 174, 175, 167, 166, 176, 166, 175, 176, 168, 167, 177, 167, 176, 177, 169, 168, 178, 168, 177, 178, 170, 169, 179, 169, 178, 179, 172, 171, 181, 173, 172, 182, 174, 173, 183, 175, 174, 184, 176, 175, 185, 177, 176, 186, 178, 177, 187, 179, 178, 188, 189, 198, 199, 190, 199, 200, 191, 200, 201, 192, 201, 202, 193, 202, 203, 194, 203, 204, 195, 204, 205, 196, 205, 206, 199, 198, 208, 198, 207, 208, 200, 199, 209, 199, 208, 209, 201, 200, 210, 200, 209, 210, 202, 201, 211, 201, 210, 211, 203, 202, 212, 202, 211, 212, 204, 203, 213, 203, 212, 213, 205, 204, 214, 204, 213, 214, 206, 205, 215, 205, 214, 215, 208, 207, 217, 207, 216, 217, 209, 208, 218, 208, 217, 218, 210, 209, 219, 209, 218, 219, 211, 210, 220, 210, 219, 220, 212, 211, 221, 211, 220, 221, 213, 212, 222, 212, 221, 222, 214, 213, 223, 213, 222, 223, 215, 214, 224, 214, 223, 224, 217, 216, 226, 216, 225, 226, 218, 217, 227, 217, 226, 227, 219, 218, 228, 218, 227, 228, 220, 219, 229, 219, 228, 229, 221, 220, 230, 220, 229, 230, 222, 221, 231, 221, 230, 231, 223, 222, 232, 222, 231, 232, 224, 223, 233, 223, 232, 233, 226, 225, 235, 225, 234, 235, 227, 226, 236, 226, 235, 236, 228, 227, 237, 227, 236, 237, 229, 228, 238, 228, 237, 238, 230, 229, 239, 229, 238, 239, 231, 230, 240, 230, 239, 240, 232, 231, 241, 231, 240, 241, 233, 232, 242, 232, 241, 242, 235, 234, 244, 236, 235, 245, 237, 236, 246, 238, 237, 247, 239, 238, 248, 240, 239, 249, 241, 240, 250, 242, 241, 251, 252, 261, 262, 253, 262, 263, 254, 263, 264, 255, 264, 265, 256, 265, 266, 257, 266, 267, 258, 267, 268, 259, 268, 269, 262, 261, 271, 261, 270, 271, 263, 262, 272, 262, 271, 272, 264, 263, 273, 263, 272, 273, 265, 264, 274, 264, 273, 274, 266, 265, 275, 265, 274, 275, 267, 266, 276, 266, 275, 276, 268, 267, 277, 267, 276, 277, 269, 268, 278, 268, 277, 278, 271, 270, 280, 270, 279, 280, 272, 271, 281, 271, 280, 281, 273, 272, 282, 272, 281, 282, 274, 273, 283, 273, 282, 283, 275, 274, 284, 274, 283, 284, 276, 275, 285, 275, 284, 285, 277, 276, 286, 276, 285, 286, 278, 277, 287, 277, 286, 287, 280, 279, 289, 279, 288, 289, 281, 280, 290, 280, 289, 290, 282, 281, 291, 281, 290, 291, 283, 282, 292, 282, 291, 292, 284, 283, 293, 283, 292, 293, 285, 284, 294, 284, 293, 294, 286, 285, 295, 285, 294, 295, 287, 286, 296, 286, 295, 296, 289, 288, 298, 288, 297, 298, 290, 289, 299, 289, 298, 299, 291, 290, 300, 290, 299, 300, 292, 291, 301, 291, 300, 301, 293, 292, 302, 292, 301, 302, 294, 293, 303, 293, 302, 303, 295, 294, 304, 294, 303, 304, 296, 295, 305, 295, 304, 305, 298, 297, 307, 299, 298, 308, 300, 299, 309, 301, 300, 310, 302, 301, 311, 303, 302, 312, 304, 303, 313, 305, 304, 314]
		normal3f[] normals = [(0.000000, 1.000000, 0.000000), (0.000000, 1.000000, 0.000000), (0.000000, 1.000000, 0.000000), (0.000000, 1.000000, 0.000000), (0.000000, 1.000000, 0.000000), (0.000000, 1.000000, 0.000000), (0.000000, 1.000000, 0.000000), (0.000000, 1.000000, 0.000000), (0.000000, 1.000000, 0.000000), (-0.5000000, 0.8660254, 0.000000), (-0.3535534, 0.8660254, 0.3535534), (-3.061617e-17, 0.8660254, 0.5000000), (0.3535534, 0.8660254, 0.3535534), (0.5000000, 0.8660254, 6.123234e-17), (0.3535534, 0.8660254, -0.3535534), (9.184851e-17, 0.8660254, -0.5000000), (-0.3535534, 0.8660254, -0.3535534), (-0.5000000, 0.8660254, -1.224647e-16), (-0.8660254, 0.5000000, 0.000000), (-0.6123725, 0.5000000, 0.6123725), (-5.302876e-17, 0.5000000, 0.8660254), (0.6123725, 0.5000000, 0.6123725), (0.8660254, 0.5000000, 1.060575e-16), (0.6123725, 0.5000000, -0.6123725), (1.590863e-16, 0.5000000, -0.8660254), (-0.6123725, 0.5000000, -0.6123725), (-0.8660254, 0.5000000, -2.121150e-16), (-1.000000, 6.123234e-17, 0.000000), (-0.7071068, 6.123234e-17, 0.7071068), (-6.123234e-17, 6.123234e-17, 1.000000), (0.7071068, 6.123234e-17, 0.7071068), (1.000000, 6.123234e-17, 1.224647e-16), (0.7071068, 6.123234e-17, -0.7071068), (1.836970e-16, 6.123234e-17, -1.000000), (-0.7071068, 6.123234e-17, -0.7071068), (-1.000000, 6.123234e-17, -2.449294e-16), (-0.8660254, -0.5000000, 0.000000), (-0.6123725, -0.5000000, 0.6123725), (-5.302876e-17, -0.5000000, 0.8660254), (0.6123725, -0.5000000, 0.6123725), (0.8660254, -0.5000000, 1.060575e-16), (0.6123725, -0.5000000, -0.6123725), (1.590863e-16, -0.5000000, -0.8660254), (-0.6123725, -0.5000000, -0.6123725), (-0.8660254, -0.5000000, -2.121150e-16), (-0.5000000, -0.8660254, 0.000000), (-0.3535534, -0.8660254, 0.3535534), (-3.061617e-17, -0.8660254, 0.5000000), (0.3535534, -0.8660254, 0.3535534), (0.5000000, -0.8660254, 6.123234e-17), (0.3535534, -0.8660254, -0.3535534), (9.184851e-17, -0.8660254, -0.5000000), (-0.3535534, -0.8660254, -0.3535534), (-0.5000000, -0.8660254, -1.224647e-16), (-1.224647e-16, -1.000000, 0.000000), (-8.659561e-17, -1.000000, 8.659561e-17), (-7.498799e-33, -1.000000, 1.224647e-16), (8.659561e-17, -1.000000, 8.659561e-17), (1.224647e-16, -1.000000, 1.499760e-32), (8.659561e-17, -1.000000, -8.659561e-17), (2.249640e-32, -1.000000, -1.224647e-16), (-8.659561e-17, -1.000000, -8.659561e-17), (-1.224647e-16, -1.000000, -2.999520e-32), (0.000000, 1.000000, 0.000000), (0.000000, 1.000000, 0.000000), (0.000000, 1.000000, 0.000000), (0.000000, 1.000000, 0.000000), (0.000000, 1.000000, 0.000000), (0.000000, 1.000000, 0.000000), (0.000000, 1.000000, 0.000000), (0.000000, 1.000000, 0.000000), (0.000000, 1.000000, 0.000000), (-0.5000000, 0.8660254, 0.000000), (-0.3535534, 0.8660254, 0.3535534), (-3.061617e-17, 0.8660254, 0.5000000), (0.3535534, 0.8660254, 0.3535534), (0.5000000, 0.8660254, 6.123234e-17), (0.3535534, 0.8660254, -0.3535534), (9.184851e-17, 0.8660254, -0.5000000), (-0.3535534, 0.8660254, -0.3535534), (-0.5000000, 0.8660254, -1.224647e-16), (-0.8660254, 0.5000000, 0.000000), (-0.6123725, 0.5000000, 0.6123725), (-5.302876e-17, 0.5000000, 0.8660254), (0.6123725, 0.5000000, 0.6123725), (0.8660254, 0.5000000, 1.060575e-16), (0.6123725, 0.5000000, -0.6123725), (1.590863e-16, 0.5000000, -0.8660254), (-0.6123725, 0.5000000, -0.6123725), (-0.8660254, 0.5000000, -2.121150e-16), (-1.000000, 6.123234e-17, 0.000000), (-0.7071068, 6.123234e-17, 0.7071068), (-6.123234e-17, 6.123234e-17, 1.000000), (0.7071068, 6.123234e-17, 0.7071068), (1.000000, 6.123234e-17, 1.224647e-16), (0.7071068, 6.123234e-17, -0.7071068), (1.836970e-16, 6.123234e-17, -1.000000), (-0.7071068, 6.123234e-17, -0.7071068), (-1.000000, 6.123234e-17, -2.449294e-16), (-0.8660254, -0.5000000, 0.000000), (-0.6123725, -0.5000000, 0.6123725), (-5.302876e-17, -0.5000000, 0.8660254), (0.6123725, -0.5000000, 0.6123725), (0.8660254, -0.5000000, 1.060575e-16), (0.6123725, -0.5000000, -0.6123725), (1.590863e-16, -0.5000000, -0.8660254), (-0.6123725, -0.5000000, -0.6123725), (-0.8660254, -0.5000000, -2.121150e-16), (-0.5000000, -0.8660254, 0.000000), (-0.3535534, -0.8660254, 0.3535534), (-3.061617e-17, -0.8660254, 0.5000000), (0.3535534, -0.8660254, 0.3535534), (0.5000000, -0.8660254, 6.123234e-17), (0.3535534, -0.8660254, -0.3535534), (9.184851e-17, -0.8660254, -0.5000000), (-0.3535534, -0.8660254, -0.3535534), (-0.5000000, -0.8660254, -1.224647e-16), (-1.224647e-16, -1.000000, 0.000000), (-8.659561e-17, -1.000000, 8.659561e-17), (-7.498799e-33, -1.000000, 1.224647e-16), (8.659561e-17, -1.000000, 8.659561e-17), (1.224647e-16, -1.000000, 1.499760e-32), (8.659561e-17, -1.000000, -8.659561e-17), (2.249640e-32, -1.000000, -1.224647e-16), (-8.659561e-17, -1.000000, -8.659561e-17), (-1.224647e-16, -1.000000, -2.999520e-32), (0.000000, 1.000000, 0.000000), (0.000000, 1.000000, 0.000000), (0.000000, 1.000000, 0.000000), (0.000000, 1.000000, 0.000000), (0.000000, 1.000000, 0.000000), (0.000000, 1.000000, 0.000000), (0.000000, 1.000000, 0.000000), (0.000000, 1.000000, 0.000000), (0.000000, 1.000000, 0.000000), (-0.5000000, 0.8660254, 0.000000), (-0.3535534, 0.8660254, 0.3535534), (-3.061617e-17, 0.8660254, 0.5000000), (0.3535534, 0.8660254, 0.3535534), (0.5000000, 0.8660254, 6.123234e-17), (0.3535534, 0.8660254, -0.3535534), (9.184851e-17, 0.8660254, -0.5000000), (-0.3535534, 0.8660254, -0.3535534), (-0.5000000, 0.8660254, -1.224647e-16), (-0.8660254, 0.5000000, 0.000000), (-0.6123725, 0.5000000, 0.6123725), (-5.302876e-17, 0.5000000, 0.8660254), (0.6123725, 0.5000000, 0.6123725), (0.8660254, 0.5000000, 1.060575e-16), (0.6123725, 0.5000000, -0.6123725), (1.590863e-16, 0.5000000, -0.8660254), (-0.6123725, 0.5000000, -0.6123725), (-0.8660254, 0.5000000, -2.121150e-16), (-1.000000, 6.123234e-17, 0.000000), (-0.7071068, 6.123234e-17, 0.7071068), (-6.123234e-17, 6.123234e-17, 1.000000), (0.7071068, 6.123234e-17, 0.7071068), (1.000000, 6.123234e-17, 1.224647e-16), (0.7071068, 6.123234e-17, -0.7071068), (1.836970e-16, 6.123234e-17, -1.000000), (-0.7071068, 6.123234e-17, -0.7071068), (-1.000000, 6.123234e-17, -2.449294e-16), (-0.8660254, -0.5000000, 0.000000), (-0.6123725, -0.5000000, 0.6123725), (-5.302876e-17, -0.5000000, 0.8660254), (0.6123725, -0.5000000, 0.6123725), (0.8660254, -0.5000000, 1.060575e-16), (0.6123725, -0.5000000, -0.6123725), (1.590863e-16, -0.5000000, -0.8660254), (-0.6123725, -0.5000000, -0.6123725), (-0.8660254, -0.5000000, -2.121150e-16), (-0.5000000, -0.8660254, 0.000000), (-0.3535534, -0.8660254, 0.3535534), (-3.061617e-17, -0.8660254, 0.5000000), (0.3535534, -0.8660254, 0.3535534), (0.5000000, -0.8660254, 6.123234e-17), (0.3535534, -0.8660254, -0.3535534), (9.184851e-17, -0.8660254, -0.5000000), (-0.3535534, -0.8660254, -0.3535534), (-0.5000000, -0.8660254, -1.224647e-16), (-1.224647e-16, -1.000000, 0.000000), (-8.659561e-17, -1.000000, 8.659561e-17), (-7.498799e-33, -1.000000, 1.224647e-16), (8.659561e-17, -1.000000, 8.659561e-17), (1.224647e-16, -1.000000, 1.499760e-32), (8.659561e-17, -1.000000, -8.659561e-17), (2.249640e-32, -1.000000, -1.224647e-16), (-8.659561e-17, -1.000000, -8.659561e-17), (-1.224647e-16, -1.000000, -2.999520e-32), (0.000000, 1.000000, 0.000000), (0.000000, 1.000000, 0.000000), (0.000000, 1.000000, 0.000000), (0.000000, 1.000000, 0.000000), (0.000000, 1.000000, 0.000000), (0.000000, 1.000000, 0.000000), (0.000000, 1.000000, 0.000000), (0.000000, 1.000000, 0.000000), (0.000000, 1.000000, 0.000000), (-0.5000000, 0.8660254, 0.000000), (-0.3535534, 0.8660254, 0.3535534), (-3.061617e-17, 0.8660254, 0.5000000), (0.3535534, 0.8660254, 0.3535534), (0.5000000, 0.8660254, 6.123234e-17), (0.3535534, 0.8660254, -0.3535534), (9.184851e-17, 0.8660254, -0.5000000), (-0.3535534, 0.8660254, -0.3535534), (-0.5000000, 0.8660254, -1.224647e-16), (-0.8660254, 0.5000000, 0.000000), (-0.6123725, 0.5000000, 0.6123725), (-5.302876e-17, 0.5000000, 0.8660254), (0.6123725, 0.5000000, 0.6123725), (0.8660254, 0.5000000, 1.060575e-16), (0.6123725, 0.5000000, -0.6123725), (1.590863e-16, 0.5000000, -0.8660254), (-0.6123725, 0.5000000, -0.6123725), (-0.8660254, 0.5000000, -2.121150e-16), (-1.000000, 6.123234e-17, 0.000000), (-0.7071068, 6.123234e-17, 0.7071068), (-6.123234e-17, 6.123234e-17, 1.000000), (0.7071068, 6.123234e-17, 0.7071068), (1.000000, 6.123234e-17, 1.224647e-16), (0.7071068, 6.123234e-17, -0.7071068), (1.836970e-16, 6.123234e-17, -1.000000), (-0.7071068, 6.123234e-17, -0.7071068), (-1.000000, 6.123234e-17, -2.449294e-16), (-0.8660254, -0.5000000, 0.000000), (-0.6123725, -0.5000000, 0.6123725), (-5.302876e-17, -0.5000000, 0.8660254), (0.6123725, -0.5000000, 0.6123725), (0.8660254, -0.5000000, 1.060575e-16), (0.6123725, -0.5000000, -0.6123725), (1.590863e-16, -0.5000000, -0.8660254), (-0.6123725, -0.5000000, -0.6123725), (-0.8660254, -0.5000000, -2.121150e-16), (-0.5000000, -0.8660254, 0.000000), (-0.3535534, -0.8660254, 0.3535534), (-3.061617e-17, -0.8660254, 0.5000000), (0.3535534, -0.8660254, 0.3535534), (0.5000000, -0.8660254, 6.123234e-17), (0.3535534, -0.8660254, -0.3535534), (9.184851e-17, -0.8660254, -0.5000000), (-0.3535534, -0.8660254, -0.3535534), (-0.5000000, -0.8660254, -1.224647e-16), (-1.224647e-16, -1.000000, 0.000000), (-8.659561e-17, -1.000000, 8.659561e-17), (-7.498799e-33, -1.000000, 1.224647e-16), (8.659561e-17, -1.000000, 8.659561e-17), (1.224647e-16, -1.000000, 1.499760e-32), (8.659561e-17, -1.000000, -8.659561e-17), (2.249640e-32, -1.000000, -1.224647e-16), (-8.659561e-17, -1.000000, -8.659561e-17), (-1.224647e-16, -1.000000, -2.999520e-32), (0.000000, 1.000000, 0.000000), (0.000000, 1.000000, 0.000000), (0.000000, 1.000000, 0.000000), (0.000000, 1.000000, 0.000000), (0.000000, 1.000000, 0.000000), (0.000000, 1.000000, 0.000000), (0.000000, 1.000000, 0.000000), (0.000000, 1.000000, 0.000000), (0.000000, 1.000000, 0.000000), (-0.5000000, 0.8660254, 0.000000), (-0.3535534, 0.8660254, 0.3535534), (-3.061617e-17, 0.8660254, 0.5000000), (0.3535534, 0.8660254, 0.3535534), (0.5000000, 0.8660254, 6.123234e-17), (0.3535534, 0.8660254, -0.3535534), (9.184851e-17, 0.8660254, -0.5000000), (-0.3535534, 0.8660254, -0.3535534), (-0.5000000, 0.8660254, -1.224647e-16), (-0.8660254, 0.5000000, 0.000000), (-0.6123725, 0.5000000, 0.6123725), (-5.302876e-17, 0.5000000, 0.8660254), (0.6123725, 0.5000000, 0.6123725), (0.8660254, 0.5000000, 1.060575e-16), (0.6123725, 0.5000000, -0.6123725), (1.590863e-16, 0.5000000, -0.8660254), (-0.6123725, 0.5000000, -0.6123725), (-0.8660254, 0.5000000, -2.121150e-16), (-1.000000, 6.123234e-17, 0.000000), (-0.7071068, 6.123234e-17, 0.7071068), (-6.123234e-17, 6.123234e-17, 1.000000), (0.7071068, 6.123234e-17, 0.7071068), (1.000000, 6.123234e-17, 1.224647e-16), (0.7071068, 6.123234e-17, -0.7071068), (1.836970e-16, 6.123234e-17, -1.000000), (-0.7071068, 6.123234e-17, -0.7071068), (-1.000000, 6.123234e-17, -2.449294e-16), (-0.8660254, -0.5000000, 0.000000), (-0.6123725, -0.5000000, 0.6123725), (-5.302876e-17, -0.5000000, 0.8660254), (0.6123725, -0.5000000, 0.6123725), (0.8660254, -0.5000000, 1.060575e-16), (0.6123725, -0.5000000, -0.6123725), (1.590863e-16, -0.5000000, -0.8660254), (-0.6123725, -0.5000000, -0.6123725), (-0.8660254, -0.5000000, -2.121150e-16), (-0.5000000, -0.8660254, 0.000000), (-0.3535534, -0.8660254, 0.3535534), (-3.061617e-17, -0.8660254, 0.5000000), (0.3535534, -0.8660254, 0.3535534), (0.5000000, -0.8660254, 6.123234e-17), (0.3535534, -0.8660254, -0.3535534), (9.184851e-17, -0.8660254, -0.5000000), (-0.3535534, -0.8660254, -0.3535534), (-0.5000000, -0.8660254, -1.224647e-16), (-1.224647e-16, -1.000000, 0.000000), (-8.659561e-17, -1.000000, 8.659561e-17), (-7.498799e-33, -1.000000, 1.224647e-16), (8.659561e-17, -1.000000, 8.659561e-17), (1.224647e-16, -1.000000, 1.499760e-32), (8.659561e-17, -1.000000, -8.659561e-17), (2.249640e-32, -1.000000, -1.224647e-16), (-8.659561e-17, -1.000000, -8.659561e-17), (-1.224647e-16, -1.000000, -2.999520e-32)] (
			interpolation = "vertex"
		)
		point3f[] points = [(-10.00000, -4.700000, -2.500000), (-10.00000, -4.700000, -2.500000), (-10.00000, -4.700000, -2.500000), (-10.00000, -4.700000, -2.500000), (-10.00000, -4.700000, -2.500000), (-10.00000, -4.700000, -2.500000), (-10.00000, -4.700000, -2.500000), (-10.00000, -4.700000, -2.500000), (-10.00000, -4.700000, -2.500000), (-10.15000, -4.740192, -2.500000), (-10.10607, -4.740192, -2.393934), (-10.00000, -4.740192, -2.350000), (-9.893933, -4.740192, -2.393934), (-9.849999, -4.740192, -2.500000), (-9.893933, -4.740192, -2.606066), (-10.00000, -4.740192, -2.650000), (-10.10607, -4.740192, -2.606066), (-10.15000, -4.740192, -2.500000), (-10.25981, -4.850000, -2.500000), (-10.18371, -4.850000, -2.316288), (-10.00000, -4.850000, -2.240192), (-9.816288, -4.850000, -2.316288), (-9.740192, -4.850000, -2.500000), (-9.816288, -4.850000, -2.683712), (-10.00000, -4.850000, -2.759808), (-10.18371, -4.850000, -2.683712), (-10.25981, -4.850000, -2.500000), (-10.30000, -5.000000, -2.500000), (-10.21213, -5.000000, -2.287868), (-10.00000, -5.000000, -2.200000), (-9.787868, -5.000000, -2.287868), (-9.700000, -5.000000, -2.500000), (-9.787868, -5.000000, -2.712132), (-10.00000, -5.000000, -2.800000), (-10.21213, -5.000000, -2.712132), (-10.30000, -5.000000, -2.500000), (-10.25981, -5.150000, -2.500000), (-10.18371, -5.150000, -2.316288), (-10.00000, -5.150000, -2.240192), (-9.816288, -5.150000, -2.316288), (-9.740192, -5.150000, -2.500000), (-9.816288, -5.150000, -2.683712), (-10.00000, -5.150000, -2.759808), (-10.18371, -5.150000, -2.683712), (-10.25981, -5.150000, -2.500000), (-10.15000, -5.259808, -2.500000), (-10.10607, -5.259808, -2.393934), (-10.00000, -5.259808, -2.350000), (-9.893933, -5.259808, -2.393934), (-9.849999, -5.259808, -2.500000), (-9.893933, -5.259808, -2.606066), (-10.00000, -5.259808, -2.650000), (-10.10607, -5.259808, -2.606066), (-10.15000, -5.259808, -2.500000), (-10.00000, -5.300000, -2.500000), (-10.00000, -5.300000, -2.500000), (-10.00000, -5.300000, -2.500000), (-10.00000, -5.300000, -2.500000), (-10.00000, -5.300000, -2.500000), (-10.00000, -5.300000, -2.500000), (-10.00000, -5.300000, -2.500000), (-10.00000, -5.300000, -2.500000), (-10.00000, -5.300000, -2.500000), (-5.000000, -4.700000, -2.500000), (-5.000000, -4.700000, -2.500000), (-5.000000, -4.700000, -2.500000), (-5.000000, -4.700000, -2.500000), (-5.000000, -4.700000, -2.500000), (-5.000000, -4.700000, -2.500000), (-5.000000, -4.700000, -2.500000), (-5.000000, -4.700000, -2.500000), (-5.000000, -4.700000, -2.500000), (-5.150000, -4.740192, -2.500000), (-5.106066, -4.740192, -2.393934), (-5.000000, -4.740192, -2.350000), (-4.893933, -4.740192, -2.393934), (-4.849999, -4.740192, -2.500000), (-4.893933, -4.740192, -2.606066), (-5.000000, -4.740192, -2.650000), (-5.106066, -4.740192, -2.606066), (-5.150000, -4.740192, -2.500000), (-5.259807, -4.850000, -2.500000), (-5.183711, -4.850000, -2.316288), (-5.000000, -4.850000, -2.240192), (-4.816288, -4.850000, -2.316288), (-4.740192, -4.850000, -2.500000), (-4.816288, -4.850000, -2.683712), (-5.000000, -4.850000, -2.759808), (-5.183711, -4.850000, -2.683712), (-5.259807, -4.850000, -2.500000), (-5.300000, -5.000000, -2.500000), (-5.212132, -5.000000, -2.287868), (-5.000000, -5.000000, -2.200000), (-4.787868, -5.000000, -2.287868), (-4.699999, -5.000000, -2.500000), (-4.787868, -5.000000, -2.712132), (-5.000000, -5.000000, -2.800000), (-5.212132, -5.000000, -2.712132), (-5.300000, -5.000000, -2.500000), (-5.259807, -5.150000, -2.500000), (-5.183711, -5.150000, -2.316288), (-5.000000, -5.150000, -2.240192), (-4.816288, -5.150000, -2.316288), (-4.740192, -5.150000, -2.500000), (-4.816288, -5.150000, -2.683712), (-5.000000, -5.150000, -2.759808), (-5.183711, -5.150000, -2.683712), (-5.259807, -5.150000, -2.500000), (-5.150000, -5.259808, -2.500000), (-5.106066, -5.259808, -2.393934), (-5.000000, -5.259808, -2.350000), (-4.893933, -5.259808, -2.393934), (-4.849999, -5.259808, -2.500000), (-4.893933, -5.259808, -2.606066), (-5.000000, -5.259808, -2.650000), (-5.106066, -5.259808, -2.606066), (-5.150000, -5.259808, -2.500000), (-5.000000, -5.300000, -2.500000), (-5.000000, -5.300000, -2.500000), (-5.000000, -5.300000, -2.500000), (-5.000000, -5.300000, -2.500000), (-5.000000, -5.300000, -2.500000), (-5.000000, -5.300000, -2.500000), (-5.000000, -5.300000, -2.500000), (-5.000000, -5.300000, -2.500000), (-5.000000, -5.300000, -2.500000), (3.874302e-7, 0.3000001, -2.500000), (3.874302e-7, 0.3000001, -2.500000), (3.874302e-7, 0.3000001, -2.500000), (3.874302e-7, 0.3000001, -2.500000), (3.874302e-7, 0.3000001, -2.500000), (3.874302e-7, 0.3000001, -2.500000), (3.874302e-7, 0.3000001, -2.500000), (3.874302e-7, 0.3000001, -2.500000), (3.874302e-7, 0.3000001, -2.500000), (-0.1499992, 0.2598075, -2.500000), (-0.1060654, 0.2598075, -2.393934), (3.874302e-7, 0.2598075, -2.350000), (0.1060661, 0.2598075, -2.393934), (0.1500000, 0.2598075, -2.500000), (0.1060661, 0.2598075, -2.606066), (3.874302e-7, 0.2598075, -2.650000), (-0.1060654, 0.2598075, -2.606066), (-0.1499992, 0.2598075, -2.500000), (-0.2598072, 0.1500000, -2.500000), (-0.1837116, 0.1500000, -2.316288), (3.874302e-7, 0.1500000, -2.240192), (0.1837124, 0.1500000, -2.316288), (0.2598080, 0.1500000, -2.500000), (0.1837124, 0.1500000, -2.683712), (3.874302e-7, 0.1500000, -2.759808), (-0.1837116, 0.1500000, -2.683712), (-0.2598072, 0.1500000, -2.500000), (-0.2999998, -8.940697e-8, -2.500000), (-0.2121321, -8.940697e-8, -2.287868), (3.874302e-7, -8.940697e-8, -2.200000), (0.2121328, -8.940697e-8, -2.287868), (0.3000006, -8.940697e-8, -2.500000), (0.2121328, -8.940697e-8, -2.712132), (3.874302e-7, -8.940697e-8, -2.800000), (-0.2121321, -8.940697e-8, -2.712132), (-0.2999998, -8.940697e-8, -2.500000), (-0.2598072, -0.1500002, -2.500000), (-0.1837116, -0.1500002, -2.316288), (3.874302e-7, -0.1500002, -2.240192), (0.1837124, -0.1500002, -2.316288), (0.2598080, -0.1500002, -2.500000), (0.1837124, -0.1500002, -2.683712), (3.874302e-7, -0.1500002, -2.759808), (-0.1837116, -0.1500002, -2.683712), (-0.2598072, -0.1500002, -2.500000), (-0.1499992, -0.2598077, -2.500000), (-0.1060654, -0.2598077, -2.393934), (3.874302e-7, -0.2598077, -2.350000), (0.1060661, -0.2598077, -2.393934), (0.1500000, -0.2598077, -2.500000), (0.1060661, -0.2598077, -2.606066), (3.874302e-7, -0.2598077, -2.650000), (-0.1060654, -0.2598077, -2.606066), (-0.1499992, -0.2598077, -2.500000), (3.874302e-7, -0.3000003, -2.500000), (3.874302e-7, -0.3000003, -2.500000), (3.874302e-7, -0.3000003, -2.500000), (3.874302e-7, -0.3000003, -2.500000), (3.874302e-7, -0.3000003, -2.500000), (3.874302e-7, -0.3000003, -2.500000), (3.874302e-7, -0.3000003, -2.500000), (3.874302e-7, -0.3000003, -2.500000), (3.874302e-7, -0.3000003, -2.500000), (5.000000, 0.3000001, 2.500000), (5.000000, 0.3000001, 2.500000), (5.000000, 0.3000001, 2.500000), (5.000000, 0.3000001, 2.500000), (5.000000, 0.3000001, 2.500000), (5.000000, 0.3000001, 2.500000), (5.000000, 0.3000001, 2.500000), (5.000000, 0.3000001, 2.500000), (5.000000, 0.3000001, 2.500000), (4.850001, 0.2598075, 2.500000), (4.893935, 0.2598075, 2.606066), (5.000000, 0.2598075, 2.650000), (5.106066, 0.2598075, 2.606066), (5.150000, 0.2598075, 2.500000), (5.106066, 0.2598075, 2.393934), (5.000000, 0.2598075, 2.350000), (4.893935, 0.2598075, 2.393934), (4.850001, 0.2598075, 2.500000), (4.740193, 0.1500000, 2.500000), (4.816288, 0.1500000, 2.683712), (5.000000, 0.1500000, 2.759808), (5.183712, 0.1500000, 2.683712), (5.259808, 0.1500000, 2.500000), (5.183712, 0.1500000, 2.316288), (5.000000, 0.1500000, 2.240192), (4.816288, 0.1500000, 2.316288), (4.740193, 0.1500000, 2.500000), (4.700000, -8.940697e-8, 2.500000), (4.787868, -8.940697e-8, 2.712132), (5.000000, -8.940697e-8, 2.800000), (5.212133, -8.940697e-8, 2.712132), (5.300001, -8.940697e-8, 2.500000), (5.212133, -8.940697e-8, 2.287868), (5.000000, -8.940697e-8, 2.200000), (4.787868, -8.940697e-8, 2.287868), (4.700000, -8.940697e-8, 2.500000), (4.740193, -0.1500002, 2.500000), (4.816288, -0.1500002, 2.683712), (5.000000, -0.1500002, 2.759808), (5.183712, -0.1500002, 2.683712), (5.259808, -0.1500002, 2.500000), (5.183712, -0.1500002, 2.316288), (5.000000, -0.1500002, 2.240192), (4.816288, -0.1500002, 2.316288), (4.740193, -0.1500002, 2.500000), (4.850001, -0.2598077, 2.500000), (4.893935, -0.2598077, 2.606066), (5.000000, -0.2598077, 2.650000), (5.106066, -0.2598077, 2.606066), (5.150000, -0.2598077, 2.500000), (5.106066, -0.2598077, 2.393934), (5.000000, -0.2598077, 2.350000), (4.893935, -0.2598077, 2.393934), (4.850001, -0.2598077, 2.500000), (5.000000, -0.3000003, 2.500000), (5.000000, -0.3000003, 2.500000), (5.000000, -0.3000003, 2.500000), (5.000000, -0.3000003, 2.500000), (5.000000, -0.3000003, 2.500000), (5.000000, -0.3000003, 2.500000), (5.000000, -0.3000003, 2.500000), (5.000000, -0.3000003, 2.500000), (5.000000, -0.3000003, 2.500000), (10.00000, 5.300000, 2.500000), (10.00000, 5.300000, 2.500000), (10.00000, 5.300000, 2.500000), (10.00000, 5.300000, 2.500000), (10.00000, 5.300000, 2.500000), (10.00000, 5.300000, 2.500000), (10.00000, 5.300000, 2.500000), (10.00000, 5.300000, 2.500000), (10.00000, 5.300000, 2.500000), (9.850000, 5.259808, 2.500000), (9.893934, 5.259808, 2.606066), (10.00000, 5.259808, 2.650000), (10.10607, 5.259808, 2.606066), (10.15000, 5.259808, 2.500000), (10.10607, 5.259808, 2.393934), (10.00000, 5.259808, 2.350000), (9.893934, 5.259808, 2.393934), (9.850000, 5.259808, 2.500000), (9.740192, 5.150000, 2.500000), (9.816288, 5.150000, 2.683712), (10.00000, 5.150000, 2.759808), (10.18371, 5.150000, 2.683712), (10.25981, 5.150000, 2.500000), (10.18371, 5.150000, 2.316288), (10.00000, 5.150000, 2.240192), (9.816288, 5.150000, 2.316288), (9.740192, 5.150000, 2.500000), (9.700001, 5.000000, 2.500000), (9.787868, 5.000000, 2.712132), (10.00000, 5.000000, 2.800000), (10.21213, 5.000000, 2.712132), (10.30000, 5.000000, 2.500000), (10.21213, 5.000000, 2.287868), (10.00000, 5.000000, 2.200000), (9.787868, 5.000000, 2.287868), (9.700001, 5.000000, 2.500000), (9.740192, 4.850000, 2.500000), (9.816288, 4.850000, 2.683712), (10.00000, 4.850000, 2.759808), (10.18371, 4.850000, 2.683712), (10.25981, 4.850000, 2.500000), (10.18371, 4.850000, 2.316288), (10.00000, 4.850000, 2.240192), (9.816288, 4.850000, 2.316288), (9.740192, 4.850000, 2.500000), (9.850000, 4.740192, 2.500000), (9.893934, 4.740192, 2.606066), (10.00000, 4.740192, 2.650000), (10.10607, 4.740192, 2.606066), (10.15000, 4.740192, 2.500000), (10.10607, 4.740192, 2.393934), (10.00000, 4.740192, 2.350000), (9.893934, 4.740192, 2.393934), (9.850000, 4.740192, 2.500000), (10.00000, 4.700000, 2.500000), (10.00000, 4.700000, 2.500000), (10.00000, 4.700000, 2.500000), (10.00000, 4.700000, 2.500000), (10.00000, 4.700000, 2.500000), (10.00000, 4.700000, 2.500000), (10.00000, 4.700000, 2.500000), (10.00000, 4.700000, 2.500000), (10.00000, 4.700000, 2.500000)]
		texCoord2f[] primvars:st = [(0.06250000, 0), (0.1875000, 0), (0.3125000, 0), (0.4375000, 0), (0.5625000, 0), (0.6875000, 0), (0.8125000, 0), (0.9375000, 0), (1.062500, 0), (0.000000, 0.16666669999999995), (0.1250000, 0.16666669999999995), (0.2500000, 0.16666669999999995), (0.3750000, 0.16666669999999995), (0.5000000, 0.16666669999999995), (0.6250000, 0.16666669999999995), (0.7500000, 0.16666669999999995), (0.8750000, 0.16666669999999995), (1.000000, 0.16666669999999995), (0.000000, 0.33333330000000005), (0.1250000, 0.33333330000000005), (0.2500000, 0.33333330000000005), (0.3750000, 0.33333330000000005), (0.5000000, 0.33333330000000005), (0.6250000, 0.33333330000000005), (0.7500000, 0.33333330000000005), (0.8750000, 0.33333330000000005), (1.000000, 0.33333330000000005), (0.000000, 0.5), (0.1250000, 0.5), (0.2500000, 0.5), (0.3750000, 0.5), (0.5000000, 0.5), (0.6250000, 0.5), (0.7500000, 0.5), (0.8750000, 0.5), (1.000000, 0.5), (0.000000, 0.6666667), (0.1250000, 0.6666667), (0.2500000, 0.6666667), (0.3750000, 0.6666667), (0.5000000, 0.6666667), (0.6250000, 0.6666667), (0.7500000, 0.6666667), (0.8750000, 0.6666667), (1.000000, 0.6666667), (0.000000, 0.8333333), (0.1250000, 0.8333333), (0.2500000, 0.8333333), (0.3750000, 0.8333333), (0.5000000, 0.8333333), (0.6250000, 0.8333333), (0.7500000, 0.8333333), (0.8750000, 0.8333333), (1.000000, 0.8333333), (-0.06250000, 1), (0.06250000, 1), (0.1875000, 1), (0.3125000, 1), (0.4375000, 1), (0.5625000, 1), (0.6875000, 1), (0.8125000, 1), (0.9375000, 1), (0.06250000, 0), (0.1875000, 0), (0.3125000, 0), (0.4375000, 0), (0.5625000, 0), (0.6875000, 0), (0.8125000, 0), (0.9375000, 0), (1.062500, 0), (0.000000, 0.16666669999999995), (0.1250000, 0.16666669999999995), (0.2500000, 0.16666669999999995), (0.3750000, 0.16666669999999995), (0.5000000, 0.16666669999999995), (0.6250000, 0.16666669999999995), (0.7500000, 0.16666669999999995), (0.8750000, 0.16666669999999995), (1.000000, 0.16666669999999995), (0.000000, 0.33333330000000005), (0.1250000, 0.33333330000000005), (0.2500000, 0.33333330000000005), (0.3750000, 0.33333330000000005), (0.5000000, 0.33333330000000005), (0.6250000, 0.33333330000000005), (0.7500000, 0.33333330000000005), (0.8750000, 0.33333330000000005), (1.000000, 0.33333330000000005), (0.000000, 0.5), (0.1250000, 0.5), (0.2500000, 0.5), (0.3750000, 0.5), (0.5000000, 0.5), (0.6250000, 0.5), (0.7500000, 0.5), (0.8750000, 0.5), (1.000000, 0.5), (0.000000, 0.6666667), (0.1250000, 0.6666667), (0.2500000, 0.6666667), (0.3750000, 0.6666667), (0.5000000, 0.6666667), (0.6250000, 0.6666667), (0.7500000, 0.6666667), (0.8750000, 0.6666667), (1.000000, 0.6666667), (0.000000, 0.8333333), (0.1250000, 0.8333333), (0.2500000, 0.8333333), (0.3750000, 0.8333333), (0.5000000, 0.8333333), (0.6250000, 0.8333333), (0.7500000, 0.8333333), (0.8750000, 0.8333333), (1.000000, 0.8333333), (-0.06250000, 1), (0.06250000, 1), (0.1875000, 1), (0.3125000, 1), (0.4375000, 1), (0.5625000, 1), (0.6875000, 1), (0.8125000, 1), (0.9375000, 1), (0.06250000, 0), (0.1875000, 0), (0.3125000, 0), (0.4375000, 0), (0.5625000, 0), (0.6875000, 0), (0.8125000, 0), (0.9375000, 0), (1.062500, 0), (0.000000, 0.16666669999999995), (0.1250000, 0.16666669999999995), (0.2500000, 0.16666669999999995), (0.3750000, 0.16666669999999995), (0.5000000, 0.16666669999999995), (0.6250000, 0.16666669999999995), (0.7500000, 0.16666669999999995), (0.8750000, 0.16666669999999995), (1.000000, 0.16666669999999995), (0.000000, 0.33333330000000005), (0.1250000, 0.33333330000000005), (0.2500000, 0.33333330000000005), (0.3750000, 0.33333330000000005), (0.5000000, 0.33333330000000005), (0.6250000, 0.33333330000000005), (0.7500000, 0.33333330000000005), (0.8750000, 0.33333330000000005), (1.000000, 0.33333330000000005), (0.000000, 0.5), (0.1250000, 0.5), (0.2500000, 0.5), (0.3750000, 0.5), (0.5000000, 0.5), (0.6250000, 0.5), (0.7500000, 0.5), (0.8750000, 0.5), (1.000000, 0.5), (0.000000, 0.6666667), (0.1250000, 0.6666667), (0.2500000, 0.6666667), (0.3750000, 0.6666667), (0.5000000, 0.6666667), (0.6250000, 0.6666667), (0.7500000, 0.6666667), (0.8750000, 0.6666667), (1.000000, 0.6666667), (0.000000, 0.8333333), (0.1250000, 0.8333333), (0.2500000, 0.8333333), (0.3750000, 0.8333333), (0.5000000, 0.8333333), (0.6250000, 0.8333333), (0.7500000, 0.8333333), (0.8750000, 0.8333333), (1.000000, 0.8333333), (-0.06250000, 1), (0.06250000, 1), (0.1875000, 1), (0.3125000, 1), (0.4375000, 1), (0.5625000, 1), (0.6875000, 1), (0.8125000, 1), (0.9375000, 1), (0.06250000, 0), (0.1875000, 0), (0.3125000, 0), (0.4375000, 0), (0.5625000, 0), (0.6875000, 0), (0.8125000, 0), (0.9375000, 0), (1.062500, 0), (0.000000, 0.16666669999999995), (0.1250000, 0.16666669999999995), (0.2500000, 0.16666669999999995), (0.3750000, 0.16666669999999995), (0.5000000, 0.16666669999999995), (0.6250000, 0.16666669999999995), (0.7500000, 0.16666669999999995), (0.8750000, 0.16666669999999995), (1.000000, 0.16666669999999995), (0.000000, 0.33333330000000005), (0.1250000, 0.33333330000000005), (0.2500000, 0.33333330000000005), (0.3750000, 0.33333330000000005), (0.5000000, 0.33333330000000005), (0.6250000, 0.33333330000000005), (0.7500000, 0.33333330000000005), (0.8750000, 0.33333330000000005), (1.000000, 0.33333330000000005), (0.000000, 0.5), (0.1250000, 0.5), (0.2500000, 0.5), (0.3750000, 0.5), (0.5000000, 0.5), (0.6250000, 0.5), (0.7500000, 0.5), (0.8750000, 0.5), (1.000000, 0.5), (0.000000, 0.6666667), (0.1250000, 0.6666667), (0.2500000, 0.6666667), (0.3750000, 0.6666667), (0.5000000, 0.6666667), (0.6250000, 0.6666667), (0.7500000, 0.6666667), (0.8750000, 0.6666667), (1.000000, 0.6666667), (0.000000, 0.8333333), (0.1250000, 0.8333333), (0.2500000, 0.8333333), (0.3750000, 0.8333333), (0.5000000, 0.8333333), (0.6250000, 0.8333333), (0.7500000, 0.8333333), (0.8750000, 0.8333333), (1.000000, 0.8333333), (-0.06250000, 1), (0.06250000, 1), (0.1875000, 1), (0.3125000, 1), (0.4375000, 1), (0.5625000, 1), (0.6875000, 1), (0.8125000, 1), (0.9375000, 1), (0.06250000, 0), (0.1875000, 0), (0.3125000, 0), (0.4375000, 0), (0.5625000, 0), (0.6875000, 0), (0.8125000, 0), (0.9375000, 0), (1.062500, 0), (0.000000, 0.16666669999999995), (0.1250000, 0.16666669999999995), (0.2500000, 0.16666669999999995), (0.3750000, 0.16666669999999995), (0.5000000, 0.16666669999999995), (0.6250000, 0.16666669999999995), (0.7500000, 0.16666669999999995), (0.8750000, 0.16666669999999995), (1.000000, 0.16666669999999995), (0.000000, 0.33333330000000005), (0.1250000, 0.33333330000000005), (0.2500000, 0.33333330000000005), (0.3750000, 0.33333330000000005), (0.5000000, 0.33333330000000005), (0.6250000, 0.33333330000000005), (0.7500000, 0.33333330000000005), (0.8750000, 0.33333330000000005), (1.000000, 0.33333330000000005), (0.000000, 0.5), (0.1250000, 0.5), (0.2500000, 0.5), (0.3750000, 0.5), (0.5000000, 0.5), (0.6250000, 0.5), (0.7500000, 0.5), (0.8750000, 0.5), (1.000000, 0.5), (0.000000, 0.6666667), (0.1250000, 0.6666667), (0.2500000, 0.6666667), (0.3750000, 0.6666667), (0.5000000, 0.6666667), (0.6250000, 0.6666667), (0.7500000, 0.6666667), (0.8750000, 0.6666667), (1.000000, 0.6666667), (0.000000, 0.8333333), (0.1250000, 0.8333333), (0.2500000, 0.8333333), (0.3750000, 0.8333333), (0.5000000, 0.8333333), (0.6250000, 0.8333333), (0.7500000, 0.8333333), (0.8750000, 0.8333333), (1.000000, 0.8333333), (-0.06250000, 1), (0.06250000, 1), (0.1875000, 1), (0.3125000, 1), (0.4375000, 1), (0.5625000, 1), (0.6875000, 1), (0.8125000, 1), (0.9375000, 1)] (
			interpolation = "vertex"
		)
		uniform token subdivisionScheme = "none"
	}
}